<?xml version="1.0" encoding="UTF-8" standalone="no"?>
<!-- Svg Vector Icons : http://www.onlinewebfonts.com/icon -->

<svg
   version="1.1"
   x="0px"
   y="0px"
   viewBox="0 0 256 256"
   enable-background="new 0 0 256 256"
   xml:space="preserve"
   id="svg22"
   sodipodi:docname="humidity.svg"
   inkscape:version="1.3 (0e150ed6c4, 2023-07-21)"
   xmlns:inkscape="http://www.inkscape.org/namespaces/inkscape"
   xmlns:sodipodi="http://sodipodi.sourceforge.net/DTD/sodipodi-0.dtd"
   xmlns="http://www.w3.org/2000/svg"
   xmlns:svg="http://www.w3.org/2000/svg"><defs
   id="defs22" /><sodipodi:namedview
   id="namedview22"
   pagecolor="#505050"
   bordercolor="#ffffff"
   borderopacity="1"
   inkscape:showpageshadow="0"
   inkscape:pageopacity="0"
   inkscape:pagecheckerboard="1"
   inkscape:deskcolor="#505050"
   inkscape:zoom="3.0351562"
   inkscape:cx="128"
   inkscape:cy="128"
   inkscape:window-width="1920"
   inkscape:window-height="1001"
   inkscape:window-x="-9"
   inkscape:window-y="-9"
   inkscape:window-maximized="1"
   inkscape:current-layer="g22" />&#10;<metadata
   id="metadata1"> Svg Vector Icons : http://www.onlinewebfonts.com/icon </metadata>&#10;<g
   id="g22"><g
     id="g21"
     style="fill:#ffffff"><g
       id="g5"
       style="fill:#ffffff"><g
         id="g4"
         style="fill:#ffffff"><path
           fill="#000000"
           d="M38.9,195.8l0.3,2.8h0.3c5,27.1,28.7,47.5,57,47.5c32,0,58-26,58-58c0-3.8-0.4-7.7-1.1-11.4c-8.2-58.5-50.5-90.2-52.3-91.5l-4.6-3.4l-4.6,3.5C38.2,125.4,38.1,181,38.5,190c-0.1,0.6-0.1,1.2,0,1.8C38.3,193.2,38.5,194.5,38.9,195.8z M96.3,101.4c10.4,9.4,35.9,36.1,41.6,77.6l0.1,0.5c0.6,2.8,0.9,5.7,0.9,8.5c0,23.4-19,42.4-42.4,42.4c-22.5,0-41.1-17.7-42.3-40.2l-0.2-3C54,176.1,56.9,133.9,96.3,101.4z"
           id="path2"
           style="fill:#ffffff" /><path
           fill="#000000"
           d="M186.9,12.6l-3.5-2.6l-3.5,2.6c-33,24.8-30.8,59.7-30.7,61.2l0.5,5.5h0.3c3.4,15.4,17.1,26.7,33.4,26.7c18.9,0,34.2-15.3,34.2-34.2c0-2.3-0.2-4.6-0.6-6.5C212.3,31.6,187.9,13.3,186.9,12.6z M183.4,94.4c-12,0-21.8-9.4-22.4-21.3l-0.1-1.8c0-6.2,1.7-28.7,22.4-46.4c6.2,5.8,19.1,20.3,22.2,42.5c0.3,1.5,0.5,3,0.5,4.6C205.9,84.3,195.8,94.4,183.4,94.4z"
           id="path3"
           style="fill:#ffffff" /></g></g><g
       id="g6"
       style="fill:#ffffff" /><g
       id="g7"
       style="fill:#ffffff" /><g
       id="g8"
       style="fill:#ffffff" /><g
       id="g9"
       style="fill:#ffffff" /><g
       id="g10"
       style="fill:#ffffff" /><g
       id="g11"
       style="fill:#ffffff" /><g
       id="g12"
       style="fill:#ffffff" /><g
       id="g13"
       style="fill:#ffffff" /><g
       id="g14"
       style="fill:#ffffff" /><g
       id="g15"
       style="fill:#ffffff" /><g
       id="g16"
       style="fill:#ffffff" /><g
       id="g17"
       style="fill:#ffffff" /><g
       id="g18"
       style="fill:#ffffff" /><g
       id="g19"
       style="fill:#ffffff" /><g
       id="g20"
       style="fill:#ffffff" /></g></g>&#10;</svg>
