<?xml version="1.0" encoding="UTF-8" standalone="no"?>
<!-- Created with Inkscape (http://www.inkscape.org/) -->

<svg
   width="1043.0923mm"
   height="1043.0923mm"
   viewBox="0 0 1043.0923 1043.0923"
   version="1.1"
   id="svg1"
   inkscape:version="1.3 (0e150ed6c4, 2023-07-21)"
   sodipodi:docname="needle.svg"
   xmlns:inkscape="http://www.inkscape.org/namespaces/inkscape"
   xmlns:sodipodi="http://sodipodi.sourceforge.net/DTD/sodipodi-0.dtd"
   xmlns="http://www.w3.org/2000/svg"
   xmlns:svg="http://www.w3.org/2000/svg">
  <sodipodi:namedview
     id="namedview1"
     pagecolor="#505050"
     bordercolor="#ffffff"
     borderopacity="1"
     inkscape:showpageshadow="0"
     inkscape:pageopacity="0"
     inkscape:pagecheckerboard="1"
     inkscape:deskcolor="#505050"
     inkscape:document-units="mm"
     inkscape:zoom="0.12393837"
     inkscape:cx="1597.5682"
     inkscape:cy="964.1889"
     inkscape:window-width="1920"
     inkscape:window-height="1001"
     inkscape:window-x="-9"
     inkscape:window-y="-9"
     inkscape:window-maximized="1"
     inkscape:current-layer="layer1" />
  <defs
     id="defs1" />
  <g
     inkscape:label="Warstwa 1"
     inkscape:groupmode="layer"
     id="layer1"
     transform="translate(393.05207,340.62063)">
    <g
       id="g10"
       transform="matrix(0.03527778,0,0,-0.03527778,-680.74296,742.6536)"
       style="display:none">
      <path
         d="m 9322.2,15002.4 414.24,1139.8 312.46,-831.2 118,-308.6 h 41.7 l 170.8,486.8 108.9,310.5 282.7,804.3 c 22.8,62.4 56.9,106.2 102.7,131.8 25.3,15 62.3,26 110.7,33.1 v 49.9 h -535.7 v -49.9 c 52.8,-1.7 92.1,-8.5 118.6,-19.5 47.5,-19.6 71,-54.1 71,-104.4 0,-14 -2.1,-32.5 -6.5,-55.2 -7,-40.4 -20,-86.8 -39.4,-138.4 L 10254.9,15536 9865,16547.7 c -14.13,36.6 -22.99,61.2 -26.41,73.1 -3.51,11.7 -5.35,25.6 -5.35,41.7 0,45.8 20.17,76.9 60.62,91.8 25.53,9 72.03,13.7 139.64,14.6 v 49.9 H 9311 v -49.9 c 57.21,-0.9 99.8,-7.4 127.68,-19.5 47.67,-20.2 83.05,-60.6 106.83,-120 l 126.32,-330.8 -285.1,-756 -390.26,1014.1 c -9.65,26.6 -16.95,48 -21.73,64.7 -4.78,16.7 -7.31,33.9 -7.31,51.4 0,39.4 20.37,66.6 60.81,81.5 22.62,8 60.93,12.9 114.53,14.6 v 49.9 h -661.12 v -49.9 c 79.13,-4.4 137.42,-36.2 174.66,-95.4 37.23,-59.1 103.02,-219.2 196.49,-479.6 l 227.59,-632.8 200.98,-558.7 h 40.83"
         style="fill:#231f20;fill-opacity:1;fill-rule:nonzero;stroke:none"
         id="path14" />
      <path
         d="m 36428.5,15020.6 c -86.9,-40 -222.1,-59.9 -405.1,-59.9 -168.7,0 -270.1,5 -304,14.6 -33.8,9.6 -50.8,41.4 -50.8,94.8 v 667.8 h 416.3 c 114.3,0 187,-17 218.6,-50.5 31.6,-33.9 57.6,-103.1 77.7,-207.6 h 63.4 v 623 h -63.4 c -19.2,-103.9 -44.7,-172.8 -76.4,-207 -31.5,-33.7 -105,-51.2 -219.9,-51.2 h -416.3 v 601.8 c 0,35.4 4.7,59.6 14,72 9.2,12.9 33.6,19.3 73.4,19.3 h 367 c 158.3,0 260,-17.9 305.7,-52.8 45.8,-34.5 79.7,-111.5 102.8,-230.6 h 68.5 l -9.2,386.1 h -1433.2 v -50.3 c 99.9,-7.1 164.6,-25.4 193.7,-54.5 28.9,-29.6 43.6,-92.3 43.6,-187.9 v -1199.5 c 0,-101.9 -15,-164.7 -44.5,-189.6 -29.3,-25 -93.6,-42.4 -192.8,-53.2 v -49.9 h 1458.1 l 122.6,455.5 h -75 c -69.5,-153.6 -147.7,-250.2 -234.8,-290.4"
         style="fill:#231f20;fill-opacity:1;fill-rule:nonzero;stroke:none"
         id="path16" />
      <path
         d="m 22634.1,28264.2 c -97.5,10.3 -160.4,30.7 -188.3,59.4 -43.2,45.1 -64.8,140.6 -64.8,287.8 v 1050.5 l 1193.6,-1479.3 h 46.1 v 1420.2 c 0,141.1 17.1,231.6 51.3,271.2 34.2,39.5 102.6,64.5 205.6,75.2 v 49.9 h -633.8 v -49.9 c 99.2,-8.9 163.5,-27.5 192.5,-56.3 43.8,-44.5 65.7,-140.4 65.7,-287.9 v -896.4 l -1041.3,1290.5 h -460.3 v -49.9 c 55.4,-1.7 97,-8.2 124.4,-19.3 27.8,-10.9 61.3,-39.6 100.8,-86.1 l 36.9,-43.5 v -1188.2 c 0,-142.7 -15.8,-233.1 -47.4,-272 -31.4,-39.2 -103.1,-64.5 -214.7,-75.9 v -49.9 h 633.7 v 49.9"
         style="fill:#231f20;fill-opacity:1;fill-rule:nonzero;stroke:none"
         id="path18" />
      <path
         d="m 22877.1,2100.9 c -158.7,0 -291.5,62.8 -398.4,188.6 -61.5,72 -114.9,168.6 -160.5,289.8 h -61.9 l 80.2,-574.5 h 59.5 c 3.5,22 10.8,42.3 21.5,62 11.1,19.3 32.3,28.8 64.1,28.8 13.1,0 65.1,-15.6 156.1,-47.3 90.8,-31.4 177.9,-47.4 261.4,-47.4 166.1,0 302.4,47.4 409.2,142.1 106.5,94.7 159.7,213.2 159.7,354.3 0,105.5 -29.7,197.1 -89.8,274.1 -61,76.5 -165.4,160.3 -313.7,251.5 l -236.9,146.4 c -88.8,54.3 -154,106.7 -196.1,156.9 -42,48.9 -63,108 -63,177.5 0,77.3 27.6,138 82.1,181.4 55.1,43.1 119.4,64.9 193.2,64.9 94.8,0 190.7,-34.3 287.8,-102.7 97.1,-68.4 167.5,-189.2 211.4,-362.1 h 64.7 l -59.4,574.2 h -55.4 c -7,-28.9 -16.8,-51.3 -29.6,-67.1 -12.7,-15.9 -35.8,-23.7 -69.1,-23.7 -12.4,0 -61.7,15.2 -148,45.6 -86.8,30.2 -160.7,45.2 -222.2,45.2 -149.3,0 -269.2,-44.9 -359.5,-135.5 -90.6,-90.4 -135.9,-203.7 -135.9,-339.9 0,-102.7 38.4,-196.7 114.6,-281.9 41.4,-44.6 96.6,-89.5 165.9,-133 l 230,-143.6 c 132.5,-82.7 219.1,-144.3 260.4,-185.7 63,-65.2 94.7,-141.4 94.7,-229.2 0,-97.6 -31.5,-173.5 -94.2,-228 -62.4,-54.5 -137,-81.7 -222.9,-81.7"
         style="fill:#231f20;fill-opacity:1;fill-rule:nonzero;stroke:none"
         id="path20" />
      <path
         d="m 13025.2,16717.6 696.6,-53.3 4.6,59.7 -696.6,53.4 -4.6,-59.8"
         style="fill:#231f20;fill-opacity:1;fill-rule:nonzero;stroke:none"
         id="path22" />
      <path
         d="m 13103.7,17450.7 690.7,-104.9 8.9,59.1 -690.7,105 -8.9,-59.2"
         style="fill:#231f20;fill-opacity:1;fill-rule:nonzero;stroke:none"
         id="path24" />
      <path
         d="m 13242.1,18175 681,-156.4 13.3,58.4 -680.9,156.3 -13.4,-58.3"
         style="fill:#231f20;fill-opacity:1;fill-rule:nonzero;stroke:none"
         id="path26" />
      <path
         d="m 13429.1,18888.3 667.3,-206.9 17.8,57.2 -667.3,206.9 -17.8,-57.2"
         style="fill:#231f20;fill-opacity:1;fill-rule:nonzero;stroke:none"
         id="path28" />
      <path
         d="m 13674.2,19583.9 649.9,-256.5 22.1,55.8 -649.9,256.4 -22.1,-55.7"
         style="fill:#231f20;fill-opacity:1;fill-rule:nonzero;stroke:none"
         id="path30" />
      <path
         d="m 13966.1,20261.1 628.9,-304.4 26.1,53.9 -628.8,304.4 -26.2,-53.9"
         style="fill:#231f20;fill-opacity:1;fill-rule:nonzero;stroke:none"
         id="path32" />
      <path
         d="m 14385,21041 604.4,-350.5 30,51.9 -604.4,350.4 -30,-51.8"
         style="fill:#231f20;fill-opacity:1;fill-rule:nonzero;stroke:none"
         id="path34" />
      <path
         d="m 14702.2,21537.8 576.6,-394.5 33.8,49.5 -576.6,394.4 -33.8,-49.4"
         style="fill:#231f20;fill-opacity:1;fill-rule:nonzero;stroke:none"
         id="path36" />
      <path
         d="m 15140,22130.9 545.7,-436.1 37.4,46.8 -545.7,436.1 -37.4,-46.8"
         style="fill:#231f20;fill-opacity:1;fill-rule:nonzero;stroke:none"
         id="path38" />
      <path
         d="m 16131,22215.7 40.7,43.9 -511.9,475.4 -40.7,-43.9 511.9,-475.4"
         style="fill:#231f20;fill-opacity:1;fill-rule:nonzero;stroke:none"
         id="path40" />
      <path
         d="m 16614.1,22701.9 43.9,40.8 -475.4,512 -43.9,-40.8 475.4,-512"
         style="fill:#231f20;fill-opacity:1;fill-rule:nonzero;stroke:none"
         id="path42" />
      <path
         d="m 17178.9,23188 -436.2,545.8 -46.8,-37.5 436.2,-545.7 46.8,37.4"
         style="fill:#231f20;fill-opacity:1;fill-rule:nonzero;stroke:none"
         id="path44" />
      <path
         d="m 17730.3,23594.9 -394.4,576.6 -49.5,-33.8 394.5,-576.6 49.4,33.8"
         style="fill:#231f20;fill-opacity:1;fill-rule:nonzero;stroke:none"
         id="path46" />
      <path
         d="m 18311.9,23957.3 -350.5,604.3 -51.8,-30 350.5,-604.4 51.8,30.1"
         style="fill:#231f20;fill-opacity:1;fill-rule:nonzero;stroke:none"
         id="path48" />
      <path
         d="m 18916.9,24278.7 -304.3,628.9 -53.9,-26.2 304.3,-628.8 53.9,26.1"
         style="fill:#231f20;fill-opacity:1;fill-rule:nonzero;stroke:none"
         id="path50" />
      <path
         d="m 19546.2,24549.6 -256.4,649.8 -55.7,-22 256.4,-649.9 55.7,22.1"
         style="fill:#231f20;fill-opacity:1;fill-rule:nonzero;stroke:none"
         id="path52" />
      <path
         d="m 20192.3,24777.3 -207,667.3 -57.2,-17.8 207,-667.2 57.2,17.7"
         style="fill:#231f20;fill-opacity:1;fill-rule:nonzero;stroke:none"
         id="path54" />
      <path
         d="m 20855,24950.6 -156.3,681 -58.4,-13.4 156.4,-680.9 58.3,13.3"
         style="fill:#231f20;fill-opacity:1;fill-rule:nonzero;stroke:none"
         id="path56" />
      <path
         d="m 21527.9,25079.4 -104.9,690.7 -59.2,-9 104.9,-690.7 59.2,9"
         style="fill:#231f20;fill-opacity:1;fill-rule:nonzero;stroke:none"
         id="path58" />
      <path
         d="m 22209.4,25151.9 -53.4,696.6 -59.7,-4.6 53.4,-696.6 59.7,4.6"
         style="fill:#231f20;fill-opacity:1;fill-rule:nonzero;stroke:none"
         id="path60" />
      <path
         d="m 23574.5,25151.9 59.8,-4.6 53.3,696.6 -59.7,4.6 -53.4,-696.6"
         style="fill:#231f20;fill-opacity:1;fill-rule:nonzero;stroke:none"
         id="path62" />
      <path
         d="m 24256,25079.4 59.2,-9 105,690.7 -59.2,9 -105,-690.7"
         style="fill:#231f20;fill-opacity:1;fill-rule:nonzero;stroke:none"
         id="path64" />
      <path
         d="m 24928.9,24950.6 58.4,-13.3 156.3,681 -58.4,13.3 -156.3,-681"
         style="fill:#231f20;fill-opacity:1;fill-rule:nonzero;stroke:none"
         id="path66" />
      <path
         d="m 25591.7,24777.3 57.2,-17.7 206.9,667.3 -57.2,17.7 -206.9,-667.3"
         style="fill:#231f20;fill-opacity:1;fill-rule:nonzero;stroke:none"
         id="path68" />
      <path
         d="m 26237.7,24549.6 55.8,-22.1 256.4,650 -55.7,22 -256.5,-649.9"
         style="fill:#231f20;fill-opacity:1;fill-rule:nonzero;stroke:none"
         id="path70" />
      <path
         d="m 26867,24278.8 53.9,-26.2 304.4,628.9 -53.9,26.1 -304.4,-628.8"
         style="fill:#231f20;fill-opacity:1;fill-rule:nonzero;stroke:none"
         id="path72" />
      <path
         d="m 27874.4,24531.6 -51.9,30.1 -350.4,-604.4 51.8,-30.1 350.5,604.4"
         style="fill:#231f20;fill-opacity:1;fill-rule:nonzero;stroke:none"
         id="path74" />
      <path
         d="m 28497.5,24137.7 -49.4,33.8 -394.5,-576.6 49.4,-33.8 394.5,576.6"
         style="fill:#231f20;fill-opacity:1;fill-rule:nonzero;stroke:none"
         id="path76" />
      <path
         d="m 29088,23696.4 -46.8,37.4 -436.1,-545.8 46.7,-37.4 436.2,545.8"
         style="fill:#231f20;fill-opacity:1;fill-rule:nonzero;stroke:none"
         id="path78" />
      <path
         d="m 29645.2,23213.9 -43.8,40.8 -475.4,-512 43.8,-40.7 475.4,511.9"
         style="fill:#231f20;fill-opacity:1;fill-rule:nonzero;stroke:none"
         id="path80" />
      <path
         d="m 30124.2,22735 -512,-475.4 40.7,-43.8 512,475.3 -40.7,43.9"
         style="fill:#231f20;fill-opacity:1;fill-rule:nonzero;stroke:none"
         id="path82" />
      <path
         d="m 30098.3,21694.8 545.7,436.2 -37.4,46.8 -545.8,-436.2 37.5,-46.8"
         style="fill:#231f20;fill-opacity:1;fill-rule:nonzero;stroke:none"
         id="path84" />
      <path
         d="m 30505.1,21143.4 576.7,394.5 -33.9,49.4 -576.6,-394.5 33.8,-49.4"
         style="fill:#231f20;fill-opacity:1;fill-rule:nonzero;stroke:none"
         id="path86" />
      <path
         d="m 30867.5,20561.9 604.4,350.5 -30,51.7 -604.4,-350.5 30,-51.7"
         style="fill:#231f20;fill-opacity:1;fill-rule:nonzero;stroke:none"
         id="path88" />
      <path
         d="m 31189,19956.8 628.8,304.3 -26.1,53.9 -628.8,-304.3 26.1,-53.9"
         style="fill:#231f20;fill-opacity:1;fill-rule:nonzero;stroke:none"
         id="path90" />
      <path
         d="m 31459.8,19327.5 649.9,256.4 -22,55.8 -649.9,-256.5 22,-55.7"
         style="fill:#231f20;fill-opacity:1;fill-rule:nonzero;stroke:none"
         id="path92" />
      <path
         d="m 31687.6,18681.4 667.2,207 -17.7,57.2 -667.3,-207 17.8,-57.2"
         style="fill:#231f20;fill-opacity:1;fill-rule:nonzero;stroke:none"
         id="path94" />
      <path
         d="m 31860.9,18018.7 680.9,156.3 -13.3,58.4 -680.9,-156.3 13.3,-58.4"
         style="fill:#231f20;fill-opacity:1;fill-rule:nonzero;stroke:none"
         id="path96" />
      <path
         d="m 31989.6,17345.8 690.7,105 -8.9,59.1 -690.8,-104.9 9,-59.2"
         style="fill:#231f20;fill-opacity:1;fill-rule:nonzero;stroke:none"
         id="path98" />
      <path
         d="m 32062.2,16664.3 696.6,53.4 -4.6,59.7 -696.6,-53.3 4.6,-59.8"
         style="fill:#231f20;fill-opacity:1;fill-rule:nonzero;stroke:none"
         id="path100" />
      <path
         d="m 32758.8,15245.8 -696.6,53.4 -4.6,-59.8 696.6,-53.3 4.6,59.7"
         style="fill:#231f20;fill-opacity:1;fill-rule:nonzero;stroke:none"
         id="path102" />
      <path
         d="m 32680.3,14512.7 -690.7,105 -8.9,-59.2 690.7,-105 8.9,59.2"
         style="fill:#231f20;fill-opacity:1;fill-rule:nonzero;stroke:none"
         id="path104" />
      <path
         d="m 32541.9,13788.5 -681,156.3 -13.3,-58.4 680.9,-156.3 13.4,58.4"
         style="fill:#231f20;fill-opacity:1;fill-rule:nonzero;stroke:none"
         id="path106" />
      <path
         d="m 32354.9,13075.1 -667.3,206.9 -17.8,-57.2 667.4,-206.9 17.7,57.2"
         style="fill:#231f20;fill-opacity:1;fill-rule:nonzero;stroke:none"
         id="path108" />
      <path
         d="m 32109.8,12379.6 -650,256.4 -22,-55.7 649.9,-256.5 22.1,55.8"
         style="fill:#231f20;fill-opacity:1;fill-rule:nonzero;stroke:none"
         id="path110" />
      <path
         d="m 31817.8,11702.3 -628.8,304.4 -26.1,-53.9 628.8,-304.4 26.1,53.9"
         style="fill:#231f20;fill-opacity:1;fill-rule:nonzero;stroke:none"
         id="path112" />
      <path
         d="m 31471.9,11051.2 -604.4,350.4 -30,-51.8 604.4,-350.5 30,51.9"
         style="fill:#231f20;fill-opacity:1;fill-rule:nonzero;stroke:none"
         id="path114" />
      <path
         d="m 31081.8,10425.6 -576.6,394.5 -33.8,-49.4 576.6,-394.5 33.8,49.4"
         style="fill:#231f20;fill-opacity:1;fill-rule:nonzero;stroke:none"
         id="path116" />
      <path
         d="m 30644.1,9832.4 -545.8,436.2 -37.4,-46.8 545.8,-436.2 37.4,46.8"
         style="fill:#231f20;fill-opacity:1;fill-rule:nonzero;stroke:none"
         id="path118" />
      <path
         d="m 29612.2,9703.9 512,-475.4 40.7,43.8 -511.9,475.4 -40.8,-43.8"
         style="fill:#231f20;fill-opacity:1;fill-rule:nonzero;stroke:none"
         id="path120" />
      <path
         d="m 29645.3,8749.5 -475.4,512 -43.9,-40.7 475.4,-512 43.9,40.7"
         style="fill:#231f20;fill-opacity:1;fill-rule:nonzero;stroke:none"
         id="path122" />
      <path
         d="m 29088.1,8267.1 -436.2,545.8 -46.8,-37.5 436.2,-545.7 46.8,37.4"
         style="fill:#231f20;fill-opacity:1;fill-rule:nonzero;stroke:none"
         id="path124" />
      <path
         d="m 28497.5,7825.7 -394.4,576.7 -49.4,-33.8 394.4,-576.7 49.4,33.8"
         style="fill:#231f20;fill-opacity:1;fill-rule:nonzero;stroke:none"
         id="path126" />
      <path
         d="m 27874.4,7431.8 -350.5,604.4 -51.8,-30 350.5,-604.4 51.8,30"
         style="fill:#231f20;fill-opacity:1;fill-rule:nonzero;stroke:none"
         id="path128" />
      <path
         d="m 27225.4,7082 -304.4,628.9 -53.9,-26.2 304.3,-628.8 54,26.1"
         style="fill:#231f20;fill-opacity:1;fill-rule:nonzero;stroke:none"
         id="path130" />
      <path
         d="m 26550,6786 -256.5,649.9 -55.7,-22 256.4,-649.9 55.8,22"
         style="fill:#231f20;fill-opacity:1;fill-rule:nonzero;stroke:none"
         id="path132" />
      <path
         d="m 25855.9,6536.6 -207,667.3 -57.2,-17.8 207,-667.2 57.2,17.7"
         style="fill:#231f20;fill-opacity:1;fill-rule:nonzero;stroke:none"
         id="path134" />
      <path
         d="m 25143.7,6345.2 -156.4,680.9 -58.3,-13.3 156.3,-680.9 58.4,13.3"
         style="fill:#231f20;fill-opacity:1;fill-rule:nonzero;stroke:none"
         id="path136" />
      <path
         d="m 24420.2,6202.3 -105,690.8 -59.1,-9 105,-690.7 59.1,8.9"
         style="fill:#231f20;fill-opacity:1;fill-rule:nonzero;stroke:none"
         id="path138" />
      <path
         d="m 23687.7,6119.5 -53.4,696.6 -59.7,-4.6 53.3,-696.6 59.8,4.6"
         style="fill:#231f20;fill-opacity:1;fill-rule:nonzero;stroke:none"
         id="path140" />
      <path
         d="m 22209.5,6811.5 -59.8,4.6 -53.4,-696.6 59.8,-4.6 53.4,696.6"
         style="fill:#231f20;fill-opacity:1;fill-rule:nonzero;stroke:none"
         id="path142" />
      <path
         d="m 21528,6884.1 -59.2,8.9 -105,-690.7 59.2,-8.9 105,690.7"
         style="fill:#231f20;fill-opacity:1;fill-rule:nonzero;stroke:none"
         id="path144" />
      <path
         d="m 20855.1,7012.8 -58.4,13.3 -156.3,-680.9 58.4,-13.4 156.3,681"
         style="fill:#231f20;fill-opacity:1;fill-rule:nonzero;stroke:none"
         id="path146" />
      <path
         d="m 20192.3,7186.1 -57.2,17.8 -206.9,-667.3 57.2,-17.8 206.9,667.3"
         style="fill:#231f20;fill-opacity:1;fill-rule:nonzero;stroke:none"
         id="path148" />
      <path
         d="m 19546.3,7413.9 -55.8,22 -256.4,-649.9 55.8,-22 256.4,649.9"
         style="fill:#231f20;fill-opacity:1;fill-rule:nonzero;stroke:none"
         id="path150" />
      <path
         d="m 18917,7684.7 -53.9,26.2 -304.4,-628.9 53.9,-26.1 304.4,628.8"
         style="fill:#231f20;fill-opacity:1;fill-rule:nonzero;stroke:none"
         id="path152" />
      <path
         d="m 17961.5,7401.8 350.4,604.4 -51.8,30 -350.5,-604.4 51.9,-30"
         style="fill:#231f20;fill-opacity:1;fill-rule:nonzero;stroke:none"
         id="path154" />
      <path
         d="m 17286.5,7825.7 49.4,-33.8 394.5,576.6 -49.5,33.8 -394.4,-576.6"
         style="fill:#231f20;fill-opacity:1;fill-rule:nonzero;stroke:none"
         id="path156" />
      <path
         d="m 16696,8267.1 46.8,-37.5 436.1,545.8 -46.7,37.4 -436.2,-545.7"
         style="fill:#231f20;fill-opacity:1;fill-rule:nonzero;stroke:none"
         id="path158" />
      <path
         d="m 16138.8,8749.5 43.8,-40.7 475.4,511.9 -43.8,40.8 -475.4,-512"
         style="fill:#231f20;fill-opacity:1;fill-rule:nonzero;stroke:none"
         id="path160" />
      <path
         d="m 15659.8,9228.4 512,475.4 -40.7,43.9 -512,-475.4 40.7,-43.9"
         style="fill:#231f20;fill-opacity:1;fill-rule:nonzero;stroke:none"
         id="path162" />
      <path
         d="m 15685.7,10268.6 -545.7,-436.2 37.4,-46.8 545.8,436.2 -37.5,46.8"
         style="fill:#231f20;fill-opacity:1;fill-rule:nonzero;stroke:none"
         id="path164" />
      <path
         d="m 15278.9,10820 -576.7,-394.4 33.8,-49.4 576.7,394.4 -33.8,49.4"
         style="fill:#231f20;fill-opacity:1;fill-rule:nonzero;stroke:none"
         id="path166" />
      <path
         d="m 14916.5,11401.6 -604.4,-350.5 30,-51.8 604.4,350.5 -30,51.8"
         style="fill:#231f20;fill-opacity:1;fill-rule:nonzero;stroke:none"
         id="path168" />
      <path
         d="m 14595,12006.7 -628.9,-304.4 26.2,-53.9 628.8,304.4 -26.1,53.9"
         style="fill:#231f20;fill-opacity:1;fill-rule:nonzero;stroke:none"
         id="path170" />
      <path
         d="m 14324.1,12636 -649.8,-256.5 22,-55.7 649.9,256.4 -22.1,55.8"
         style="fill:#231f20;fill-opacity:1;fill-rule:nonzero;stroke:none"
         id="path172" />
      <path
         d="m 14096.4,13282 -667.3,-206.9 17.8,-57.3 667.3,207 -17.8,57.2"
         style="fill:#231f20;fill-opacity:1;fill-rule:nonzero;stroke:none"
         id="path174" />
      <path
         d="m 13923.1,13944.8 -680.9,-156.4 13.3,-58.4 680.9,156.4 -13.3,58.4"
         style="fill:#231f20;fill-opacity:1;fill-rule:nonzero;stroke:none"
         id="path176" />
      <path
         d="m 13794.4,14617.6 -690.7,-104.9 8.9,-59.2 690.7,105 -8.9,59.1"
         style="fill:#231f20;fill-opacity:1;fill-rule:nonzero;stroke:none"
         id="path178" />
      <path
         d="m 13721.8,15299.1 -696.6,-53.3 4.6,-59.8 696.6,53.4 -4.6,59.7"
         style="fill:#231f20;fill-opacity:1;fill-rule:nonzero;stroke:none"
         id="path180" />
      <path
         d="m 34246.2,15844.8 c 26.1,26 42.9,42.8 42.9,42.8 0,0 -0.5,20.8 -1.4,56.8 l -40.4,-5.2 c 0,-31.6 -0.8,-62.9 -1.1,-94.4"
         style="fill:#7e7050;fill-opacity:1;fill-rule:nonzero;stroke:none"
         id="path190" />
      <path
         d="m 22789.9,4359.9 2.4,18.6 -4.8,0.2 z"
         style="fill:#7e6e4e;fill-opacity:1;fill-rule:nonzero;stroke:none"
         id="path230" />
      <path
         d="M 22939,27170.6 C 16737,27170.6 11691.3,22125 11691.3,15923 11691.3,9721 16737,4675.3 22939,4675.3 c 6202,0 11247.6,5045.7 11247.6,11247.7 0,6202 -5045.6,11247.6 -11247.6,11247.6 z m 0,-22639.1 c -3042.8,0 -5903.5,1184.9 -8055,3336.5 -2151.6,2151.5 -3336.5,5012.2 -3336.5,8055 0,3042.8 1184.9,5903.5 3336.5,8055.1 2151.5,2151.5 5012.2,3336.4 8055,3336.4 3042.8,0 5903.5,-1184.9 8055,-3336.4 2151.6,-2151.6 3336.5,-5012.3 3336.5,-8055.1 0,-3042.8 -1184.9,-5903.5 -3336.5,-8055 C 28842.4,5716.4 25981.8,4531.5 22939,4531.5"
         style="fill:#231f20;fill-opacity:1;fill-rule:nonzero;stroke:none"
         id="path242" />
      <path
         d="m 31159.3,6937.3 c 11.6,46.1 46.1,104.3 103.2,174.4 52.8,64.8 86.4,102.1 100.7,112 14.3,10 32,6.4 52.8,-10.5 l 260,-211.9 -130,-159.7 c -35.7,-43.8 -65.1,-66.3 -88,-67.9 -23.1,-1.3 -58.1,10.7 -105.1,36.1 l -19.8,-24.3 242.6,-197.7 19.8,24.3 c -34.5,40.4 -53.3,72 -56.7,95 -3.4,22.8 12.8,56.6 48.7,100.6 l 130,159.8 234.4,-191 c 13.8,-11.2 21.7,-20.7 23.7,-28.2 2.1,-7.6 -3,-19 -15.4,-34.3 l -114.7,-140.8 c -49.5,-60.7 -88.2,-94 -116.1,-100.5 -27.7,-6.6 -68.3,4.8 -121.9,33.7 l -21.4,-26.2 153.2,-119 447.8,549.8 -19.6,16 c -34,-36.1 -61.3,-55.1 -81.7,-57 -20.6,-1.7 -49.6,12.5 -86.8,42.9 l -467.1,380.5 c -39.7,32.4 -59.4,58 -59.9,77.2 -0.6,19.2 12.7,49.4 39.5,90.9 l -19.4,15.8 -455.5,-559.4 139,-191.6 23.4,28.8 c -38.1,75.4 -51.3,136 -39.7,182.2"
         style="fill:#231f20;fill-opacity:1;fill-rule:nonzero;stroke:none"
         id="path244" />
      <path
         d="m 31882.1,7869.3 c 49.6,60.9 115.5,91.9 197.9,93 47.3,0.8 101.6,-9.4 163,-30.3 l 19.3,23.7 -248.7,151.5 -18.6,-22.8 c 7.5,-8.3 13.1,-17.6 17.4,-27.9 4.1,-10.4 1.1,-21.6 -8.8,-33.8 -4.1,-5 -26.4,-20 -67.2,-44.8 -40.6,-24.9 -74,-53.3 -100.1,-85.3 -51.9,-63.7 -76,-131.1 -72.5,-202.1 3.6,-70.9 33.2,-128.9 88.1,-173.7 41,-33.4 86,-51.1 134.7,-52.5 48.9,-0.8 114.1,12.6 196,40.6 l 131,44.4 c 48.9,16.9 89.6,25.3 122.4,25.5 32.1,0.6 61.7,-10.1 88.8,-32.1 30.1,-24.6 45.1,-54.4 44.9,-89.1 -0.4,-34.8 -12,-66.4 -35.1,-94.7 -29.6,-36.3 -72.9,-62.3 -129.9,-77.9 -56.9,-15.5 -125.9,-4.2 -207,33.8 l -20.2,-24.8 242.1,-159.4 17.4,21.3 c -9.1,11.8 -14.8,22.7 -16.9,32.6 -2.3,9.9 1.9,21.3 12.3,34.1 3.9,4.7 25.2,18.8 64,42.3 38.9,23.7 67.8,47.3 87,70.9 46.7,57.3 66.6,117.5 59.6,180.9 -6.9,63.5 -36.9,116.8 -89.9,160 -40,32.6 -88.6,47.7 -145.6,45.5 -30.2,-1.8 -65,-8.7 -103.6,-21.5 l -127.8,-42.7 c -73.6,-24.6 -124.6,-38.3 -153.6,-41 -45.1,-3.5 -84.7,8.6 -118.8,36.4 -38.1,31 -57.8,67.1 -59.4,108.5 -1.7,41.2 11,78.5 37.8,111.4"
         style="fill:#231f20;fill-opacity:1;fill-rule:nonzero;stroke:none"
         id="path246" />
      <path
         d="m 13685.9,8140.9 -255.8,-566.2 411.9,193 153.7,71 15.3,-14.9 -111.5,-239.7 -71.2,-152.8 -184,-396 c -14,-31.1 -17.1,-59.3 -9.5,-85.1 3.9,-14.6 13.5,-31.9 28.7,-51.8 l -17.8,-18.3 -196.5,191.6 17.9,18.3 c 20,-18.2 36.8,-29.8 50.5,-35.2 24.4,-9.8 45.4,-5.6 63.4,12.9 4.9,5.1 10.8,12.7 17.3,22.6 11.9,17.3 23.7,38.9 35.1,64.8 l 203.7,456.4 -504.9,-231.5 c -18.3,-8.4 -30.4,-14.2 -35.9,-17.3 -5.4,-3.1 -11.1,-7.5 -16.8,-13.4 -16.4,-16.8 -20.2,-35.4 -10.7,-55.4 6.2,-12.4 21.6,-30.8 46,-55.3 l -17.8,-18.3 -265,258.5 17.9,18.3 c 21.3,-20.1 39.2,-33 53.8,-38.5 24.7,-9.7 52.1,-7.5 82.1,5.8 l 164.7,76.1 165.9,379.2 -505.9,-232.3 c -13.1,-6.3 -23.4,-11.5 -31.2,-15.9 -7.7,-4.4 -14.8,-9.8 -21,-16.3 -14.1,-14.4 -16.4,-31.7 -6.9,-51.6 5.4,-11 17.7,-26.5 36.8,-46.3 l -17.9,-18.3 -242.4,236.5 17.8,18.3 c 30.7,-26.7 63.4,-35.9 98.2,-27.5 34.8,8.4 116.2,43.5 243.7,105.6 l 309.8,150.6 273.6,133 14.9,-14.6"
         style="fill:#231f20;fill-opacity:1;fill-rule:nonzero;stroke:none"
         id="path248" />
      <path
         d="m 14657.9,7151.2 c -58.2,56.8 -129.3,81.3 -213.6,73.4 -48.3,-4.4 -102.4,-20.8 -162.5,-48.9 l -22.7,22.2 234.9,182 21.9,-21.4 c -6.6,-9.3 -11.2,-19.3 -14.3,-30.4 -2.9,-11 1.5,-22.1 13.2,-33.5 4.8,-4.6 29.4,-17.5 74.1,-38.4 44.6,-21 82.3,-46.3 112.8,-76.2 61,-59.4 94,-125.5 99.3,-198.5 5.1,-72.8 -17.8,-135.3 -68.2,-187 -37.7,-38.7 -81.4,-61.7 -131,-68.4 -49.7,-6.3 -118,0.3 -205,20 l -139.3,31 c -51.9,11.9 -94.6,16 -128,12.6 -32.9,-2.9 -61.8,-17 -86.6,-42.5 -27.7,-28.4 -39.3,-60.5 -34.8,-95.9 4.8,-35.5 20.6,-66.5 47.7,-92.9 34.7,-33.9 82.1,-55.7 142.2,-65.3 60.1,-9.7 129.1,9.4 207.1,57.1 l 23.7,-23.1 -227.2,-189.3 -20.3,19.8 c 7.8,13.1 12.2,24.8 13.1,35.2 1.1,10.4 -4.6,21.5 -16.8,33.4 -4.5,4.4 -28.1,16.5 -70.6,36.2 -42.6,20 -75.1,40.9 -97.6,62.9 -54.8,53.4 -82.7,112.8 -83.4,178.3 -0.9,65.6 23,123.4 71.8,173.3 36.7,37.7 84.4,58.4 142.8,62.4 31.1,1.5 67.5,-1.8 108.4,-10.6 l 135.8,-29.6 c 78.1,-17.1 131.9,-25.5 161.9,-25.1 46.4,1.4 85.3,18 116.7,50.2 34.9,35.8 50.5,74.9 47,117.3 -3.4,42.3 -21,79 -52.5,109.7"
         style="fill:#231f20;fill-opacity:1;fill-rule:nonzero;stroke:none"
         id="path250" />
      <path
         d="m 30852.9,25097.4 c -31.7,37 -47.5,65.9 -47.8,85.9 -0.3,31 24.6,73 74.9,126.2 l 358.8,380.3 -73.2,-943.2 16.7,-15.8 485.1,514.2 c 48.3,51.1 85.3,78 111.2,80.6 25.9,2.7 59.2,-11.7 100.1,-43 l 17.1,18.1 -229.4,216.5 -17.1,-18.1 c 32.9,-37.1 49.8,-65.8 50.5,-86.1 0.6,-31.1 -24.2,-73.3 -74.6,-126.7 l -306.2,-324.5 63.9,822.9 -166.7,157.2 -17,-18 c 19.4,-19.6 32.3,-36.1 38.4,-49.5 6.3,-13.4 8.7,-35.3 7.1,-65.6 l -1.5,-28.4 -405.9,-430.1 c -48.7,-51.7 -85.3,-79 -110.1,-82.3 -24.7,-3.4 -59.3,11.9 -103.6,45.9 l -17.1,-18.1 229.4,-216.4 17,18"
         style="fill:#231f20;fill-opacity:1;fill-rule:nonzero;stroke:none"
         id="path252" />
      <path
         d="m 31963.7,24088.4 c -45.2,15.2 -100.9,54.2 -167.1,116.7 -61.1,57.7 -96.1,94.1 -105.1,109.2 -9,15 -4.3,32.3 14,51.6 l 228.1,241.8 150.7,-142.2 c 41.4,-39 61.9,-70.1 61.9,-93 -0.1,-23.1 -14.4,-57 -42.8,-101.7 l 23,-21.6 212.8,225.5 -22.9,21.7 c -42.5,-31.1 -75.3,-47.3 -98.4,-48.9 -22.9,-1.4 -55.5,17.3 -97.1,56.6 l -150.7,142.2 205.6,217.9 c 12.1,12.8 22,19.9 29.6,21.3 7.8,1.5 18.8,-4.5 33.2,-18.1 l 132.9,-125.4 c 57.3,-54.1 87.9,-95.3 92.6,-123.5 4.8,-28.2 -9.2,-67.6 -41.6,-118.6 l 24.8,-23.4 128.6,142.9 -518.9,489.6 -17.1,-18.2 c 33.7,-36.7 50.9,-65.4 51.5,-85.9 0.3,-20.6 -15.8,-48.3 -48.5,-82.9 l -409.7,-434.3 c -34.8,-36.9 -61.7,-54.5 -80.9,-53.4 -19.1,1 -48.4,16.6 -87.9,46.6 l -17.1,-18.1 527.9,-498.1 200,123 -27.2,25.7 c -77.6,-31.9 -138.9,-40.2 -184.2,-25"
         style="fill:#231f20;fill-opacity:1;fill-rule:nonzero;stroke:none"
         id="path254" />
      <path
         d="m 14163.5,23942.9 c -36.8,-32.1 -65.5,-48.2 -85.4,-48.7 -31.1,-0.5 -73.3,23.9 -127,73.7 l -383.7,355.2 943.9,-64.3 15.6,16.9 -518.7,480.2 c -51.5,47.8 -78.8,84.6 -81.7,110.5 -2.9,25.8 11.2,59.3 42.1,100.5 l -18.3,16.9 -214.3,-231.5 18.2,-16.9 c 36.8,33.3 65.4,50.4 85.7,51.3 31.1,0.9 73.5,-23.5 127.4,-73.4 l 327.4,-303.1 -823.5,56.1 -155.7,-168.1 18.3,-16.9 c 19.3,19.6 35.7,32.7 49.1,38.9 13.3,6.5 35.2,9 65.5,7.7 l 28.4,-1.2 433.9,-401.8 c 52.1,-48.3 79.8,-84.7 83.4,-109.3 3.6,-24.8 -11.4,-59.5 -44.9,-104.1 l 18.2,-16.9 214.3,231.4 -18.2,16.9"
         style="fill:#231f20;fill-opacity:1;fill-rule:nonzero;stroke:none"
         id="path256" />
      <path
         d="m 15011.1,24670.8 -234.7,575.3 404.5,-208.2 150.9,-76.6 15.9,14.3 -102.5,243.6 -65.5,155.4 -169.3,402.6 c -12.8,31.5 -14.9,59.9 -6.3,85.4 4.5,14.4 14.7,31.3 30.7,50.6 l -17.2,19 -203.4,-184.2 17.2,-19 c 20.6,17.5 37.9,28.4 51.7,33.3 24.8,9 45.6,3.9 62.9,-15.2 4.8,-5.3 10.3,-13 16.5,-23.2 11.2,-17.7 22.2,-39.8 32.6,-66.1 l 186.7,-463.6 -496,250.1 c -18,9 -29.8,15.3 -35.2,18.6 -5.3,3.3 -10.8,7.9 -16.4,14 -15.7,17.4 -18.8,36.2 -8.5,55.7 6.6,12.2 22.6,30 48,53.6 l -17.2,19 -274.3,-248.5 17.1,-19 c 22.1,19.4 40.5,31.6 55.2,36.5 25.1,8.7 52.4,5.6 81.9,-8.8 l 161.7,-82.2 151.7,-385.1 -496.9,250.9 c -12.8,6.8 -23,12.4 -30.5,17.1 -7.6,4.7 -14.5,10.3 -20.5,17 -13.5,14.9 -15.1,32.3 -4.9,51.8 5.8,10.9 18.7,25.9 38.4,45 l -17.1,18.9 -251.1,-227.3 17.2,-19 c 31.6,25.5 64.7,33.5 99.1,23.9 34.5,-9.7 114.5,-47.9 239.6,-114.6 l 304,-162 268.5,-143 15.5,14"
         style="fill:#231f20;fill-opacity:1;fill-rule:nonzero;stroke:none"
         id="path258" />
      <path
         d="m 15088.4,23970.3 -357.4,490.3 494.6,-358.6 z"
         style="fill:#231f20;fill-opacity:1;fill-rule:nonzero;stroke:none"
         id="path260" />
      <path
         d="m 30933.3,24027.3 357.4,490.3 -494.6,-358.6 z"
         style="fill:#231f20;fill-opacity:1;fill-rule:nonzero;stroke:none"
         id="path262" />
      <path
         d="m 14636.1,8124.6 -380.9,-472.2 511.5,334.1 z"
         style="fill:#231f20;fill-opacity:1;fill-rule:nonzero;stroke:none"
         id="path264" />
      <path
         d="m 31221.2,8107.2 380.1,-473 -510.9,335.1 z"
         style="fill:#231f20;fill-opacity:1;fill-rule:nonzero;stroke:none"
         id="path266" />
      <path
         d="M 22939,30520.229 C 14889.993,30520.229 8341.6415,23972.007 8341.6415,15923 8341.6415,7873.9929 14889.993,1325.6415 22939,1325.6415 c 8049.007,0 14597.229,6548.3514 14597.229,14597.3585 0,8049.007 -6548.222,14597.229 -14597.229,14597.229 z m 0,-29381.2123 c -3948.971,0 -7661.611,1537.7731 -10453.846,4330.1374 C 9692.7898,8261.3887 8155.0167,11974.029 8155.0167,15923 c 0,3948.971 1537.7731,7661.611 4330.1373,10453.976 2792.235,2792.234 6504.875,4330.008 10453.846,4330.008 3948.971,0 7661.611,-1537.774 10453.846,-4330.008 2792.364,-2792.365 4330.138,-6505.005 4330.138,-10453.976 0,-3948.971 -1537.774,-7661.6113 -4330.138,-10453.8459 C 30600.482,2676.7898 26887.971,1139.0167 22939,1139.0167"
         style="fill:#231f20;fill-opacity:1;fill-rule:nonzero;stroke:none;stroke-width:1.29781"
         id="path1"
         sodipodi:nodetypes="sssssccssssscc" />
      <path
         d="m 13672.681,16044.282 -698.639,-0.383 0.05,-59.975 698.645,0.481 -0.06,59.877"
         style="fill:#231f20;fill-opacity:1;fill-rule:nonzero;stroke:none"
         id="path2" />
      <path
         d="m 32796.326,15975.707 -698.639,-0.383 0.05,-59.975 698.645,0.481 -0.06,59.877"
         style="fill:#231f20;fill-opacity:1;fill-rule:nonzero;stroke:none"
         id="path2-5" />
      <path
         d="m 22933.448,6059.4493 0.206,698.6446 -59.878,-0.01 -0.3,-698.6359 h 59.972"
         style="fill:#231f20;fill-opacity:1;fill-rule:nonzero;stroke:none"
         id="path3"
         sodipodi:nodetypes="ccccc" />
      <path
         d="m 22969.694,25207.48 0.206,698.645 -59.878,-0.01 -0.3,-698.636 h 59.972"
         style="fill:#231f20;fill-opacity:1;fill-rule:nonzero;stroke:none"
         id="path3-3"
         sodipodi:nodetypes="ccccc" />
    </g>
    <path
       d="m 127.99862,-127.68577 c 0,0.23314 -20.34199,69.594145 -45.172071,154.226209 C 57.996471,111.11425 37.654466,180.82495 37.654466,181.40784 c 0,0.58285 20.342005,70.52673 45.28864,155.39193 35.321664,120.42001 45.405244,154.05136 45.813244,152.94391 0.23317,-0.81601 20.75003,-70.46844 45.52181,-154.80907 L 219.33367,181.52439 173.92844,27.006739 c -24.94666,-85.040095 -45.52181,-154.692509 -45.63836,-154.867359 -0.17492,-0.11654 -0.29146,-0.0584 -0.29146,0.17492 z m 12.53161,270.4496 c 6.52811,2.09832 11.48247,5.1875 16.61168,10.25844 16.96138,16.9031 15.21279,46.10467 -3.67207,60.38488 -4.42976,3.3806 -11.77387,6.8778 -16.4368,7.86866 -4.48806,0.93261 -12.99788,0.93261 -17.48594,0 -4.66295,-0.99086 -13.23107,-5.18749 -17.13626,-8.39326 -6.644671,-5.53722 -12.065337,-14.33849 -13.755643,-22.32375 -1.806887,-8.45153 -0.757729,-18.53513 2.622905,-25.76265 5.712071,-12.24018 15.504228,-20.10886 28.851838,-23.19806 5.36238,-1.224 14.62993,-0.69943 20.40029,1.16574 z"
       id="path2-8"
       style="stroke-width:0.0582865" />
  </g>
</svg>
