<?xml version="1.0" encoding="UTF-8" standalone="no"?>
<svg
   viewBox="0 0 121.88 88"
   version="1.1"
   id="svg10"
   sodipodi:docname="showers-day.svg"
   inkscape:version="1.3 (0e150ed6c4, 2023-07-21)"
   xmlns:inkscape="http://www.inkscape.org/namespaces/inkscape"
   xmlns:sodipodi="http://sodipodi.sourceforge.net/DTD/sodipodi-0.dtd"
   xmlns="http://www.w3.org/2000/svg"
   xmlns:svg="http://www.w3.org/2000/svg">
  <sodipodi:namedview
     id="namedview10"
     pagecolor="#505050"
     bordercolor="#ffffff"
     borderopacity="1"
     inkscape:showpageshadow="0"
     inkscape:pageopacity="0"
     inkscape:pagecheckerboard="1"
     inkscape:deskcolor="#505050"
     inkscape:zoom="4.9803086"
     inkscape:cx="60.939999"
     inkscape:cy="44.073574"
     inkscape:window-width="1920"
     inkscape:window-height="1001"
     inkscape:window-x="-9"
     inkscape:window-y="-9"
     inkscape:window-maximized="1"
     inkscape:current-layer="svg10" />
  <defs
     id="defs1">
    <style
       id="style1">.cls-1{fill:#f5b952;}.cls-2{fill:#aac7d5;}.cls-3{fill:#cae3f6;}.cls-4,.cls-5{fill:none;stroke:#000;stroke-miterlimit:10;stroke-width:4px;}.cls-5{stroke-linecap:round;}</style>
  </defs>
  <title
     id="title1">showers-dayAsset 185colored</title>
  <g
     id="Layer_2"
     data-name="Layer 2">
    <g
       id="Layer_1-2"
       data-name="Layer 1">
      <path
         class="cls-1"
         d="M21.39,1.91A20.1,20.1,0,1,0,41.49,22,20.13,20.13,0,0,0,21.39,1.91Z"
         id="path1" />
      <path
         class="cls-2"
         d="M83.64,52.15a1.35,1.35,0,0,1,.77-.46,24.92,24.92,0,0,0,11.14-4.1c6.44,4.75,12,5.4,17.45,2.13,4.78-2.85,7.71-8.5,6.77-13.85-1.39-8-6.53-12-14.44-12.58-2.64-9.84-8.67-16.41-18.71-18.21C74.88,3,66.33,8.13,60.61,18.32"
         id="path2" />
      <path
         class="cls-3"
         d="M70.2,32h-.36a24,24,0,0,0-47,.87l-.87,0a13.94,13.94,0,0,0-5.53,1.6,14.74,14.74,0,0,0-2.35,1.56c-.4.33-.79.67-1.17,1.05a9.69,9.69,0,0,0-2.06,2.5A13.77,13.77,0,0,0,9.71,42C7.15,49.94,10.87,55.9,15.1,58.75s11.5,4,17.85-1.57a24,24,0,0,0,27,0A14.67,14.67,0,1,0,70.2,32Z"
         id="path3" />
      <path
         class="cls-4"
         d="M39.79,13.71A19.75,19.75,0,1,0,11.21,38.44"
         id="path4" />
      <path
         class="cls-4"
         d="M83.58,51.66a1.27,1.27,0,0,1,.78-.46,25,25,0,0,0,11.13-4.11c6.44,4.75,12,5.41,17.45,2.13,4.78-2.85,7.71-8.49,6.77-13.84-1.39-8-6.53-12-14.43-12.58C102.64,13,96.6,6.38,86.56,4.59c-11.74-2.1-20.29,3.05-26,13.23"
         id="path5" />
      <path
         class="cls-4"
         d="M70.14,31.47l-.36,0a24,24,0,0,0-47,.87c-.29,0-.58,0-.87,0A14.27,14.27,0,0,0,16.37,34,14.8,14.8,0,0,0,14,35.56a14.06,14.06,0,0,0-1.17,1,10.07,10.07,0,0,0-2.06,2.5,13.13,13.13,0,0,0-1.13,2.4c-2.57,8,1.16,13.9,5.38,16.75,4.38,3,11.5,4,17.86-1.56a24,24,0,0,0,27,0A14.67,14.67,0,1,0,70.14,31.47Z"
         id="path6" />
      <line
         class="cls-5"
         x1="93.59"
         y1="67.86"
         x2="93.59"
         y2="74.13"
         id="line6"
         style="stroke:#aac7d5;stroke-opacity:1" />
      <line
         class="cls-5"
         x1="67.76"
         y1="67.86"
         x2="67.76"
         y2="74.13"
         id="line7"
         style="stroke:#aac7d5;stroke-opacity:1" />
      <line
         class="cls-5"
         x1="41.94"
         y1="67.86"
         x2="41.94"
         y2="74.13"
         id="line8"
         style="stroke:#aac7d5;stroke-opacity:1" />
      <line
         class="cls-5"
         x1="79.64"
         y1="79.73"
         x2="79.64"
         y2="86"
         id="line9"
         style="stroke:#aac7d5;stroke-opacity:1" />
      <line
         class="cls-5"
         x1="53.81"
         y1="79.73"
         x2="53.81"
         y2="86"
         id="line10"
         style="stroke:#aac7d5;stroke-opacity:1" />
    </g>
  </g>
</svg>
