<?xml version="1.0" encoding="UTF-8" standalone="no"?>
<!-- Svg Vector Icons : http://www.onlinewebfonts.com/icon -->

<svg
   version="1.1"
   x="0px"
   y="0px"
   viewBox="0 0 256 256"
   enable-background="new 0 0 256 256"
   xml:space="preserve"
   id="svg4"
   sodipodi:docname="rain_drop.svg"
   inkscape:version="1.3 (0e150ed6c4, 2023-07-21)"
   xmlns:inkscape="http://www.inkscape.org/namespaces/inkscape"
   xmlns:sodipodi="http://sodipodi.sourceforge.net/DTD/sodipodi-0.dtd"
   xmlns="http://www.w3.org/2000/svg"
   xmlns:svg="http://www.w3.org/2000/svg"><defs
   id="defs4" /><sodipodi:namedview
   id="namedview4"
   pagecolor="#505050"
   bordercolor="#ffffff"
   borderopacity="1"
   inkscape:showpageshadow="0"
   inkscape:pageopacity="0"
   inkscape:pagecheckerboard="1"
   inkscape:deskcolor="#505050"
   inkscape:zoom="2.1461796"
   inkscape:cx="83.63699"
   inkscape:cy="129.76547"
   inkscape:window-width="1920"
   inkscape:window-height="1001"
   inkscape:window-x="-9"
   inkscape:window-y="-9"
   inkscape:window-maximized="1"
   inkscape:current-layer="g4" />&#10;<metadata
   id="metadata1"> Svg Vector Icons : http://www.onlinewebfonts.com/icon </metadata>&#10;<g
   id="g4"><g
     id="g3"><g
       id="g2"><path
         fill="#000000"
         d="M125.3,10.8c-1.3,0.9-27.8,40.6-36.7,55C67,100.5,56.8,124,53,147.3c-1.9,11.8-2.1,27.1-0.4,37c2.9,17.4,10,31.5,21.1,42.1c13.7,13,31.9,19.6,54.4,19.6c22.3,0,40.7-6.6,54.2-19.4c11.8-11.2,19-26.2,21.6-45c1-7.2,0.8-25.2-0.4-32.9c-3.8-24-14.2-47.9-35.8-82.8c-9-14.4-35.5-54.2-36.7-55c-0.6-0.5-1.9-0.8-2.8-0.8C127.1,10,125.9,10.3,125.3,10.8z M140.7,43.1c23.7,35.8,35,55.1,42.8,73.5c7.6,17.7,11.1,34,11.1,51.1c0,36.7-18.6,60.9-51.3,66.8c-8,1.4-22.1,1.5-30.1,0c-29.6-5.3-47.4-25.1-51.1-56.2c-1.1-9.6-0.3-23.4,2-34.6c3.9-19.7,14.6-42.8,34.1-74c6-9.6,29.5-45.2,29.9-45.2C128.2,24.4,133.9,32.9,140.7,43.1z"
         id="path1"
         style="fill:#ffffff" /></g></g></g>&#10;</svg>
