<?xml version="1.0" encoding="UTF-8" standalone="no"?>
<!-- Svg Vector Icons : http://www.onlinewebfonts.com/icon -->

<svg
   version="1.1"
   x="0px"
   y="0px"
   viewBox="0 0 113.9 236"
   enable-background="new 0 0 256 256"
   xml:space="preserve"
   id="svg3"
   sodipodi:docname="thermometer_temprature.svg"
   inkscape:version="1.3 (0e150ed6c4, 2023-07-21)"
   width="113.9"
   height="236"
   xmlns:inkscape="http://www.inkscape.org/namespaces/inkscape"
   xmlns:sodipodi="http://sodipodi.sourceforge.net/DTD/sodipodi-0.dtd"
   xmlns="http://www.w3.org/2000/svg"
   xmlns:svg="http://www.w3.org/2000/svg"><defs
   id="defs3" /><sodipodi:namedview
   id="namedview3"
   pagecolor="#505050"
   bordercolor="#ffffff"
   borderopacity="1"
   inkscape:showpageshadow="0"
   inkscape:pageopacity="0"
   inkscape:pagecheckerboard="1"
   inkscape:deskcolor="#505050"
   inkscape:zoom="0.54345024"
   inkscape:cx="-154.56797"
   inkscape:cy="346.85788"
   inkscape:window-width="1920"
   inkscape:window-height="1001"
   inkscape:window-x="-9"
   inkscape:window-y="-9"
   inkscape:window-maximized="1"
   inkscape:current-layer="svg3" />&#10;<metadata
   id="metadata1"> Svg Vector Icons : http://www.onlinewebfonts.com/icon </metadata>&#10;<g
   id="g3"
   style="fill:#ffffff"
   transform="translate(-71,-10)"><g
     id="g2"
     style="fill:#ffffff"><g
       id="g1"
       style="fill:#ffffff"><path
         fill="#000000"
         d="m 158.2,140.3 v -8 h 26.7 v 8 z m 0,-25.6 h 26.7 v 8.5 h -26.7 z m 0,-17.1 h 26.7 v 8.5 h -26.7 z m 0,-17.6 h 26.7 v 8.5 L 158.2,88 Z m 0,-18.2 h 26.7 v 9.1 h -26.7 z m 0,-17.1 h 26.7 v 8.5 h -26.7 z m 15.4,150 c 0,28.3 -23,51.3 -51.3,51.3 C 94,246 71,223 71,194.7 c 0,-19.4 10.3,-36.3 26.2,-45 V 35.6 C 97.2,21.4 109.2,10 123.4,10 137.6,10 149,21.5 149,35.6 V 151 c 14.8,9.1 24.6,25.2 24.6,43.7 z m -33,-38.5 V 35.6 c 0,-9.4 -7.7,-17.1 -17.1,-17.1 -9.4,0 -17.1,7.7 -17.1,17.1 v 119.6 c -15.7,6.4 -26.7,21.6 -26.7,39.5 0,23.6 19.1,42.7 42.7,42.7 23.6,0 42.7,-19.1 42.7,-42.7 0,-17 -10.1,-31.6 -24.5,-38.5 z m -18.2,72.7 c -18.9,0 -34.2,-15.3 -34.2,-34.2 0,-16.3 11.4,-29.9 26.7,-33.3 V 80 H 132 v 82.1 c 14.2,4.2 24.6,17.1 24.6,32.6 0,18.9 -15.3,34.2 -34.2,34.2 z"
         id="path1"
         style="fill:#ffffff" /></g></g></g>&#10;</svg>
