<?xml version="1.0" encoding="utf-8"?>
<!-- Svg Vector Icons : http://www.onlinewebfonts.com/icon -->
<!DOCTYPE svg PUBLIC "-//W3C//DTD SVG 1.1//EN" "http://www.w3.org/Graphics/SVG/1.1/DTD/svg11.dtd">
<svg version="1.1" xmlns="http://www.w3.org/2000/svg" xmlns:xlink="http://www.w3.org/1999/xlink" x="0px" y="0px" viewBox="0 0 256 256" enable-background="new 0 0 256 256" xml:space="preserve">
<metadata> Svg Vector Icons : http://www.onlinewebfonts.com/icon </metadata>
<g><g><path fill="#000000" d="M244.4,123.2c-2.1-2.7-52.6-69.7-116.4-69.7s-114.2,67-116.4,69.7c-2.1,2.7-2.1,7,0,9.7c2.1,2.7,52.6,69.7,116.4,69.7s114.2-67,116.4-69.7C246.5,129.6,246.5,125.9,244.4,123.2L244.4,123.2L244.4,123.2z M128,185.9c-46.7,0-87.4-43.4-99.8-58.5C40.6,113,81.3,69,128,69s87.4,43.4,99.8,58.5C215.4,142.5,174.7,185.9,128,185.9L128,185.9L128,185.9z M128.5,93.1c-18.8,0-34.3,15.6-34.3,34.3c0,18.8,15.6,34.3,34.3,34.3c18.8,0,34.3-15.6,34.3-34.3C162.9,108.7,147.3,93.1,128.5,93.1L128.5,93.1L128.5,93.1z M128.5,146.2c-10.2,0-18.2-8-18.2-18.2c0-10.2,8-18.2,18.2-18.2c10.2,0,18.2,8,18.2,18.2C146.8,138.2,138.7,146.2,128.5,146.2L128.5,146.2L128.5,146.2z"/></g></g>
</svg>